# xmcd
#
# Track frame offsets:
#	150
#	18331
#	25433
#	39312
#	54301
#	83658
#	88215
#	102210
#	126676
#	148811
#	159405
#	166273
#	175737
#	182290
#	189029
#	202540
#	208800
#	225540
#	252913
#	281432
#
# Disc length: 4235 seconds
#
# Revision: 3
# Processed by: cddbd v1.5.2PL0 Copyright (c) Steve Scherf et al.
# Submitted via: audiograbber 1.83.01
#
DISCID=00108914
DTITLE=Christoph Sonntag - Wenn Der Mostmann Zweimal Tingelt
DYEAR=2002
DGENRE=Kabarett
TTITLE0=Mostmann
TTITLE1=Wahl 2002
TTITLE2=Scharping Und Schilly
TTITLE3=Bin Laden, Haider Und Bush
TTITLE4=Landeskundestunde
TTITLE5=Schwäbischer Pietismus
TTITLE6=Johannes Der Toifer (Technischer Ober-Inspektor)
TTITLE7=Most Und Jägermeister
TTITLE8=40 Jahre Baden-Württemberg
TTITLE9=Fundamt: Erwin Teufel
TTITLE10=50 Jahre Baden-Württemberg
TTITLE11=Euro, Österreich Und Haider
TTITLE12=Skinheads Und Chappi
TTITLE13=Mehdorn Und Die Bahn
TTITLE14=Fundamt: Papst
TTITLE15=Europa Macht Spass
TTITLE16=Das Blaue Kondom
TTITLE17=Mostmann Liest
TTITLE18=Hamburg, Das Mostmangelgebiet
TTITLE19=Kfz-Mechaniker
EXTD=
EXTT0=
EXTT1=
EXTT2=
EXTT3=
EXTT4=
EXTT5=
EXTT6=
EXTT7=
EXTT8=
EXTT9=
EXTT10=
EXTT11=
EXTT12=
EXTT13=
EXTT14=
EXTT15=
EXTT16=
EXTT17=
EXTT18=
EXTT19=
PLAYORDER=
